{"title":"ABBA - The Definitive Collection 2001 hq 576p x264 - saos","uid":9358766,"size":1101455843,"categoryP":"video","categoryS":"music_videos","magnet":"?xt=urn:btih:58ed42b4c4fb88928d645dc8c081fba265785873&amp;dn=ABBA+-+The+Definitive+Collection+2001+hq+576p+x264+-+saos&amp;tr=udp%3A%2F%2Ftracker.openbittorrent.com%3A80&amp;tr=udp%3A%2F%2Fopen.demonii.com%3A1337&amp;tr=udp%3A%2F%2Ftracker.coppersurfer.tk%3A6969&amp;tr=udp%3A%2F%2Fexodus.desync.com%3A6969","seeders":1,"leechers":0,"uploader":"arnbd","files":39,"time":1387262151,"description":"Ripped by SAOS (high compression):\nTook several hours to compress the video stream.\nOriginal ac3 audio has been preserved\n\nSource: ABBA - The Definitive Collection 2001 only1joe FLAC-EAC\n\nProvided mp4s are Windows Media Player compatible:\nNative SAMI captions provided. Hence, it will not require any extra plugin to render the video or caption for wmp with VISTA or later releases.\nFor more subtitles, visit amara: http://www.amara.org/en/profiles/videos/badami02/\n\nFor other players, you can use the srt file to display captions.\n\nMediainfo for a sample file:\n\nGeneral\nComplete name                            : G:VideosEnglishAbbaABBA - The Definitive Collection 2001 only1joe FLAC-EACABBA - Chiquitita 1979.mp4\nFormat                                   : MPEG-4\nFormat profile                           : Base Media\nCodec ID                                 : isom\nFile size                                : 41.7 MiB\nDuration                                 : 5mn 23s\nOverall bit rate                         : 1 081 Kbps\nWriting application                      : Lavf55.22.100\n\nVideo\nID                                       : 1\nFormat                                   : AVC\nFormat/Info                              : Advanced Video Codec\nFormat profile                           : &lt;a class=&quot;__cf_email__&quot; href=&quot;/cdn-cgi/l/email-protection&quot; data-cfemail=&quot;135b7a747b535f273d23&quot;&gt;[email&amp;#160;protected]&lt;/a&gt;&lt;script data-cfhash='f9e31' type=&quot;text/javascript&quot;&gt;\n/* &lt;![CDATA[ */!function(){try{var t=&quot;currentScript&quot;in document?document.currentScript:function(){for(var t=document.getElementsByTagName(&quot;script&quot;),e=t.length;e--;)if(t[e].getAttribute(&quot;data-cfhash&quot;))return t[e]}();if(t&amp;&amp;t.previousSibling){var e,r,n,i,c=t.previousSibling,a=c.getAttribute(&quot;data-cfemail&quot;);if(a){for(e=&quot;&quot;,r=parseInt(a.substr(0,2),16),n=2;a.length-n;n+=2)i=parseInt(a.substr(n,2),16)^r,e+=String.fromCharCode(i);e=document.createTextNode(e),c.parentNode.replaceChild(e,c)}t.parentNode.removeChild(t);}}catch(u){}}()/* ]]&gt; */&lt;/script&gt;\nFormat settings, CABAC                   : Yes\nFormat settings, ReFrames                : 16 frames\nCodec ID                                 : avc1\nCodec ID/Info                            : Advanced Video Coding\nDuration                                 : 5mn 23s\nBit rate                                 : 700 Kbps\nWidth                                    : 720 pixels\nHeight                                   : 576 pixels\nDisplay aspect ratio                     : 4:3\nOriginal display aspect ratio            : 4:3\nFrame rate mode                          : Constant\nFrame rate                               : 25.000 fps\nStandard                                 : PAL\nColor space                              : YUV\nChroma subsampling                       : 4:2:0\nBit depth                                : 8 bits\nScan type                                : Progressive\nBits/(Pixel*Frame)                       : 0.068\nStream size                              : 26.7 MiB (64%)\nWriting library                          : x264 core 140 r2377 1ca7bb9\nEncoding settings                        : cabac=1 / ref=16 / deblock=1:-1:-1 / analyse=0x3:0x133 / me=umh / subme=10 / psy=1 / psy_rd=1.00:0.15 / mixed_ref=1 / me_range=24 / chroma_me=1 / trellis=2 / 8x8dct=1 / cqm=0 / deadzone=21,11 / fast_pskip=1 / chroma_qp_offset=-3 / threads=12 / lookahead_threads=2 / sliced_threads=0 / nr=0 / decimate=1 / interlaced=0 / bluray_compat=0 / constrained_intra=0 / bframes=8 / b_pyramid=2 / b_adapt=2 / b_bias=0 / direct=3 / weightb=1 / open_gop=0 / weightp=2 / keyint=250 / keyint_min=25 / scenecut=40 / intra_refresh=0 / rc_lookahead=60 / rc=abr / mbtree=1 / bitrate=700 / ratetol=1.0 / qcomp=0.60 / qpmin=0 / qpmax=69 / qpstep=4 / ip_ratio=1.40 / aq=1:1.00\nLanguage                                 : English\n\nAudio\nID                                       : 2\nFormat                                   : AC-3\nFormat/Info                              : Audio Coding 3\nMode extension                           : CM (complete main)\nFormat settings, Endianness              : Big\nCodec ID                                 : ac-3\nDuration                                 : 5mn 23s\nBit rate mode                            : Constant\nBit rate                                 : 384 Kbps\nChannel(s)                               : 2 channels\nChannel positions                        : Front: L R\nSampling rate                            : 48.0 KHz\nBit depth                                : 16 bits\nCompression mode                         : Lossy\nDelay relative to video                  : 80ms\nStream size                              : 14.8 MiB (36%)\nLanguage                                 : English\n\n","torrent":{"xt":"urn:btih:58ed42b4c4fb88928d645dc8c081fba265785873","amp;dn":"ABBA+-+The+Definitive+Collection+2001+hq+576p+x264+-+saos","amp;tr":["udp%3A%2F%2Ftracker.openbittorrent.com%3A80","udp%3A%2F%2Fopen.demonii.com%3A1337","udp%3A%2F%2Ftracker.coppersurfer.tk%3A6969","udp%3A%2F%2Fexodus.desync.com%3A6969"],"infoHash":"58ed42b4c4fb88928d645dc8c081fba265785873","infoHashBuffer":{"type":"Buffer","data":[88,237,66,180,196,251,136,146,141,100,93,200,192,129,251,162,101,120,88,115]},"announce":[],"urlList":[]}}